# Blender v2.80 (sub 75) OBJ File: 'castlewallsandfloors.blend'
# www.blender.org
mtllib castlewallsandfloors.mtl
o floor1_Plane.005
v -4.000000 0.000000 36.000000
v 4.000000 0.000000 36.000000
v -4.000000 0.000000 -20.000000
v 4.000000 0.000000 -20.000000
vt 0.000163 0.499837
vt 0.333279 0.000163
vt 0.333279 0.499837
vt 0.000163 0.000163
vn 0.0000 1.0000 0.0000
usemtl wood
s 1
f 2/1/1 3/2/1 1/3/1
s 2
f 2/1/1 4/4/1 3/2/1
o floor2_Plane.001
v -4.000000 0.000000 -12.000001
v -4.000000 0.000000 -20.000000
v -44.000000 0.000000 -11.999999
v -44.000000 0.000000 -20.000000
vt 0.000163 0.999837
vt 0.333279 0.500163
vt 0.333279 0.999837
vt 0.000163 0.500163
vn 0.0000 1.0000 0.0000
usemtl wood
s 1
f 6/5/2 7/6/2 5/7/2
s 2
f 6/5/2 8/8/2 7/6/2
o roof1_Plane.007
v -4.000000 8.000000 36.000000
v 4.000000 8.000000 36.000000
v -4.000000 8.000000 -20.000000
v 4.000000 8.000000 -20.000000
vt 0.333605 0.999837
vt 0.666721 0.500163
vt 0.666721 0.999837
vt 0.333605 0.500163
vn 0.0000 1.0000 0.0000
usemtl wood
s 1
f 10/9/3 11/10/3 9/11/3
s 2
f 10/9/3 12/12/3 11/10/3
o roof2_Plane.008
v -4.000000 8.000000 -12.000001
v -4.000000 8.000000 -20.000000
v -44.000000 8.000000 -11.999999
v -44.000000 8.000000 -20.000000
vt 0.333605 0.499837
vt 0.666721 0.000163
vt 0.666721 0.499837
vt 0.333605 0.000163
vn 0.0000 1.0000 0.0000
usemtl wood
s 1
f 14/13/4 15/14/4 13/15/4
s 2
f 14/13/4 16/16/4 15/14/4
