# Blender v2.80 (sub 75) OBJ File: 'castle1.blend'
# www.blender.org
mtllib castle_tex.mtl
o floor2_Plane.001
v -4.000000 0.000000 -12.000001
v -4.000000 0.000000 -20.000000
v -44.000000 0.000000 -11.999999
v -44.000000 0.000000 -20.000000
vt 0.999582 1.000000
vt 0.002201 1.000000
vt 0.002201 -0.000242
vt 0.999582 -0.000243
vn 0.0000 1.0000 0.0000
usemtl wood
s 1
f 1/1/1 2/2/1 4/3/1 3/4/1
o wall1.11_Plane.002
v 4.000000 3.000000 36.000000
v 4.000000 0.000000 36.000000
v 4.000000 3.000000 -20.000000
v 4.000000 0.000000 -20.000000
vt 0.999900 0.999900
vt 0.000100 0.999900
vt 0.000100 0.000100
vt 0.999900 0.000100
vn 1.0000 0.0000 0.0000
usemtl wallbrick28y
s 1
f 5/5/2 6/6/2 8/7/2 7/8/2
o wall1.2_Plane.003
v -4.000000 8.000000 36.000000
v -4.000000 0.000000 36.000000
v -4.000000 8.000000 -12.000000
v -4.000000 0.000000 -12.000000
v -4.000000 8.000000 36.000000
v -4.000000 0.000000 36.000000
v -4.000000 8.000000 -12.000000
v -4.000000 0.000000 -12.000000
vt 0.200000 0.400000
vt 0.400000 0.400000
vt 0.400000 0.200000
vt 0.200000 0.200000
vt 0.997814 0.002039
vt 0.997989 0.997787
vt -0.002841 0.997961
vt -0.001340 -0.000297
vt 0.400000 0.400000
vt 0.400000 0.200000
vt 0.200000 0.200000
vt 0.200000 0.400000
vn -0.4472 0.0000 0.8944
vn 0.4472 0.0000 0.8944
usemtl wallbrick24y
s 1
f 9/9/3 11/10/3 12/11/3 10/12/3
f 13/13/4 14/14/4 16/15/4 15/16/4
f 12/11/3 11/10/3 15/17/4 16/18/4
f 9/9/3 10/12/3 14/19/4 13/20/4
f 10/12/3 12/11/3 16/18/4 14/19/4
f 11/10/3 9/9/3 13/20/4 15/17/4
o wall2.1_Plane.004
v -4.000000 8.000000 -12.000001
v -4.000000 0.000000 -12.000001
v -44.000000 8.000000 -11.999999
v -44.000000 0.000000 -11.999999
vt 0.799582 0.399582
vt 0.600418 0.399582
vt 0.600418 0.200418
vt 0.799582 0.200418
vn 0.0000 0.0000 -1.0000
usemtl wallbrick20y2.001
s 1
f 17/21/5 18/22/5 20/23/5 19/24/5
o roof1_Plane.007
v -4.000000 8.000000 36.000000
v 4.000000 8.000000 36.000000
v -4.000000 8.000000 -20.000000
v 4.000000 8.000000 -20.000000
vt 1.000000 1.000000
vt -0.001205 1.000000
vt -0.001205 -0.001205
vt 1.000000 -0.001205
vn 0.0000 1.0000 0.0000
usemtl wood
s 1
f 21/25/6 22/26/6 24/27/6 23/28/6
o roof2_Plane.008
v -4.000000 8.000000 -12.000001
v -4.000000 8.000000 -20.000000
v -44.000000 8.000000 -11.999999
v -44.000000 8.000000 -20.000000
vt 1.000000 1.000000
vt 0.000418 1.000000
vt 0.000418 -0.002646
vt 1.000000 -0.002647
vn 0.0000 1.0000 0.0000
usemtl wood
s 1
f 25/29/7 26/30/7 28/31/7 27/32/7
o wall1.12_Plane.009
v 4.000000 8.000000 36.000000
v 4.000000 6.000000 36.000000
v 4.000000 8.000000 -20.000000
v 4.000000 6.000000 -20.000000
vt 0.799582 0.599582
vt 0.600418 0.599582
vt 0.600418 0.400418
vt 0.799582 0.400418
vn 1.0000 0.0000 0.0000
usemtl wallbrick20y2
s 1
f 29/33/8 30/34/8 32/35/8 31/36/8
o wallCC2_Plane.010
v -44.000000 20.000000 36.000000
v -44.000000 0.000000 36.000000
v -44.000000 20.000000 -12.000000
v -44.000000 0.000000 -12.000000
vt 1.000000 1.000000
vt 0.000000 1.000000
vt 0.000000 0.000000
vt 1.000000 0.000000
vn 1.0000 0.0000 0.0000
usemtl wallbrick1.001
s 1
f 33/37/9 34/38/9 36/39/9 35/40/9
o wallCC3_Plane.020
v -44.000000 20.000000 -12.000000
v -44.000000 8.000000 -12.000000
v -44.000000 20.000000 -20.000000
v -44.000000 8.000000 -20.000000
vt 0.199582 0.199582
vt 0.000418 0.199582
vt 0.000418 0.000418
vt 0.199582 0.000418
vn 1.0000 0.0000 0.0000
usemtl wallbrick4y
s 1
f 37/41/10 38/42/10 40/43/10 39/44/10
o courtyard1_Plane.021
v -148.000000 0.000000 36.000000
v -44.000000 0.000000 36.000000
v -148.000000 0.000000 -68.000000
v -44.000000 0.000000 -68.000000
vt 0.399582 0.799582
vt 0.200418 0.799582
vt 0.200418 0.600418
vt 0.399582 0.600418
vn 0.0000 1.0000 0.0000
usemtl dirt
s 1
f 41/45/11 42/46/11 44/47/11 43/48/11
o wallfar_Plane.023
v 4.000000 8.000000 -20.000002
v 4.000000 0.000000 -20.000000
v -44.000000 8.000000 -20.000000
v -44.000000 0.000000 -19.999998
v 4.000000 8.000000 -20.000002
v 4.000000 0.000000 -20.000000
v -44.000000 8.000000 -20.000000
v -44.000000 0.000000 -19.999998
vt 0.200000 0.400000
vt 0.400000 0.400000
vt 0.400000 0.200000
vt 0.200000 0.200000
vt 0.997814 0.002039
vt 0.997989 0.997787
vt -0.002841 0.997961
vt -0.001340 -0.000297
vt 0.400000 0.400000
vt 0.400000 0.200000
vt 0.200000 0.200000
vt 0.200000 0.400000
vn 0.0000 0.0000 1.0000
usemtl wallbrick24y
s 1
f 45/49/12 47/50/12 48/51/12 46/52/12
f 49/53/12 50/54/12 52/55/12 51/56/12
f 48/51/12 47/50/12 51/57/12 52/58/12
f 45/49/12 46/52/12 50/59/12 49/60/12
f 46/52/12 48/51/12 52/58/12 50/59/12
f 47/50/12 45/49/12 49/60/12 51/57/12
o wallEND_Plane.026
v 4.000000 8.000000 36.000000
v 4.000000 0.000000 36.000000
v -4.000000 8.000000 36.000000
v -4.000000 0.000000 36.000000
v 4.000000 8.000000 36.000000
v 4.000000 0.000000 36.000000
v -4.000000 8.000000 36.000000
v -4.000000 0.000000 36.000000
vt 0.204775 0.386598
vt 0.404570 0.395651
vt 0.408174 0.197513
vt 0.213828 0.186803
vt 1.000000 0.000000
vt 1.000000 1.000000
vt 0.000000 1.000000
vt 0.000000 0.000000
vt 0.404570 0.395651
vt 0.408174 0.197513
vt 0.213828 0.186803
vt 0.204775 0.386598
vn 0.0000 0.0000 1.0000
usemtl wallbrick
s 1
f 53/61/13 55/62/13 56/63/13 54/64/13
f 57/65/13 58/66/13 60/67/13 59/68/13
f 56/63/13 55/62/13 59/69/13 60/70/13
f 53/61/13 54/64/13 58/71/13 57/72/13
f 54/64/13 56/63/13 60/70/13 58/71/13
f 55/62/13 53/61/13 57/72/13 59/69/13
o floor1_Plane.005
v -4.000000 0.000000 36.000000
v 4.000000 0.000000 36.000000
v -4.000000 0.000000 -20.000000
v 4.000000 0.000000 -20.000000
vt 1.000000 1.000000
vt -0.001205 1.000000
vt -0.001205 -0.001205
vt 1.000000 -0.001205
vn 0.0000 1.0000 0.0000
usemtl wood
s 1
f 61/73/14 62/74/14 64/75/14 63/76/14
o wallCC1_Plane.027
v -44.000000 20.000000 -20.000000
v -44.000000 0.000000 -20.000000
v -44.000000 20.000000 -68.000000
v -44.000000 0.000000 -68.000000
vt 1.000000 1.000000
vt 0.000000 1.000000
vt 0.000000 0.000000
vt 1.000000 0.000000
vn 1.0000 0.0000 0.0000
usemtl wallbrick1.003
s 1
f 65/77/15 66/78/15 68/79/15 67/80/15
o wallCF_Plane.028
v -148.000000 20.000000 36.000000
v -148.000000 0.000000 36.000000
v -148.000000 20.000000 -68.000000
v -148.000000 0.000000 -68.000000
vt 1.000000 1.000000
vt 0.000000 1.000000
vt 0.000000 0.000000
vt 1.000000 0.000000
vn 1.0000 0.0000 0.0000
usemtl wallbrick1.004
s 1
f 69/81/16 70/82/16 72/83/16 71/84/16
o wallCL_Plane.029
v -44.000000 20.000000 35.999996
v -44.000000 0.000000 36.000000
v -148.000000 20.000000 36.000000
v -148.000000 0.000000 36.000004
vt 1.000000 1.000000
vt 0.000000 1.000000
vt 0.000000 0.000000
vt 1.000000 0.000000
vn 0.0000 0.0000 -1.0000
usemtl wallbrick1.005
s 1
f 73/85/17 74/86/17 76/87/17 75/88/17
o wallCR_Plane.030
v -44.000000 20.000000 -68.000000
v -44.000000 0.000000 -68.000000
v -148.000000 20.000000 -68.000000
v -148.000000 0.000000 -68.000000
vt 1.000000 1.000000
vt 0.000000 1.000000
vt 0.000000 0.000000
vt 1.000000 0.000000
vn 0.0000 0.0000 -1.0000
usemtl wallbrick1.006
s 1
f 77/89/18 78/90/18 80/91/18 79/92/18
o floor1.000_Plane.014
v -4.000000 0.000000 36.000000
v 4.000000 0.000000 36.000000
v -4.000000 0.000000 -20.000000
v 4.000000 0.000000 -20.000000
vt 1.000000 1.000000
vt 0.000000 1.000000
vt 0.000000 0.000185
vt 1.000000 0.000185
vn 0.0000 1.0000 0.0000
usemtl wood.000
s 1
f 81/93/19 82/94/19 84/95/19 83/96/19
o floor1.004_Plane.013
v -4.000000 0.000000 36.000000
v 4.000000 0.000000 36.000000
v -4.000000 0.000000 -20.000000
v 4.000000 0.000000 -20.000000
vt 1.000000 1.000000
vt 0.000000 1.000000
vt 0.000000 0.000185
vt 1.000000 0.000185
vn 0.0000 1.0000 0.0000
usemtl wood.004
s 1
f 85/97/20 86/98/20 88/99/20 87/100/20
o floor1.003_Plane.011
v -4.000000 0.000000 36.000000
v 4.000000 0.000000 36.000000
v -4.000000 0.000000 -20.000000
v 4.000000 0.000000 -20.000000
vt 1.000000 1.000000
vt 0.000000 1.000000
vt 0.000000 0.000185
vt 1.000000 0.000185
vn 0.0000 1.0000 0.0000
usemtl wood.003
s 1
f 89/101/21 90/102/21 92/103/21 91/104/21
o wall1_Plane.006
v -44.000000 8.000000 -18.000000
v -44.000000 0.000000 -18.000000
v -44.000000 8.000000 -20.000000
v -44.000000 0.000000 -20.000000
v -44.000000 8.000000 -18.000000
v -44.000000 0.000000 -18.000000
v -44.000000 8.000000 -20.000000
v -44.000000 0.000000 -20.000000
vt 0.204775 0.386598
vt 0.404570 0.395651
vt 0.408174 0.197513
vt 0.213828 0.186803
vt 1.000000 0.000000
vt 1.000000 1.000000
vt 0.000000 1.000000
vt 0.000000 0.000000
vt 0.404570 0.395651
vt 0.408174 0.197513
vt 0.213828 0.186803
vt 0.204775 0.386598
vn -0.4472 0.0000 0.8944
vn 0.4472 0.0000 0.8944
usemtl wallbrick.003
s 1
f 93/105/22 95/106/22 96/107/22 94/108/22
f 97/109/23 98/110/23 100/111/23 99/112/23
f 96/107/22 95/106/22 99/113/23 100/114/23
f 93/105/22 94/108/22 98/115/23 97/116/23
f 94/108/22 96/107/22 100/114/23 98/115/23
f 95/106/22 93/105/22 97/116/23 99/113/23
o wall2_Plane.000
v -44.000000 8.000000 -12.000000
v -44.000000 0.000000 -12.000000
v -44.000000 8.000000 -14.000000
v -44.000000 0.000000 -14.000000
v -44.000000 8.000000 -12.000000
v -44.000000 0.000000 -12.000000
v -44.000000 8.000000 -14.000000
v -44.000000 0.000000 -14.000000
vt 0.204775 0.386598
vt 0.404570 0.395651
vt 0.408174 0.197513
vt 0.213828 0.186803
vt 1.000000 0.000000
vt 1.000000 1.000000
vt 0.000000 1.000000
vt 0.000000 0.000000
vt 0.404570 0.395651
vt 0.408174 0.197513
vt 0.213828 0.186803
vt 0.204775 0.386598
vn -0.4472 0.0000 0.8944
vn 0.4472 0.0000 0.8944
usemtl wallbrick
s 1
f 101/117/24 103/118/24 104/119/24 102/120/24
f 105/121/25 106/122/25 108/123/25 107/124/25
f 104/119/24 103/118/24 107/125/25 108/126/25
f 101/117/24 102/120/24 106/127/25 105/128/25
f 102/120/24 104/119/24 108/126/25 106/127/25
f 103/118/24 101/117/24 105/128/25 107/125/25
o walltop_Plane.012
v -44.000000 8.000000 -14.000000
v -44.000000 6.000000 -14.000000
v -44.000000 8.000000 -18.000000
v -44.000000 6.000000 -18.000000
v -44.000000 8.000000 -14.000000
v -44.000000 6.000000 -14.000000
v -44.000000 8.000000 -18.000000
v -44.000000 6.000000 -18.000000
vt 0.204775 0.386598
vt 0.404570 0.395651
vt 0.408174 0.197513
vt 0.213828 0.186803
vt 1.000000 0.000000
vt 1.000000 1.000000
vt 0.000000 1.000000
vt 0.000000 0.000000
vt 0.404570 0.395651
vt 0.408174 0.197513
vt 0.213828 0.186803
vt 0.204775 0.386598
vn -0.4472 0.0000 0.8944
vn 0.4472 0.0000 0.8944
usemtl wallbrick.002
s 1
f 109/129/26 111/130/26 112/131/26 110/132/26
f 113/133/27 114/134/27 116/135/27 115/136/27
f 112/131/26 111/130/26 115/137/27 116/138/27
f 109/129/26 110/132/26 114/139/27 113/140/27
f 110/132/26 112/131/26 116/138/27 114/139/27
f 111/130/26 109/129/26 113/140/27 115/137/27
