# Blender v2.80 (sub 75) OBJ File: 'door.blend'
# www.blender.org
mtllib door.mtl
o door_Cube
v 0.000000 0.000000 0.100000
v 0.000000 6.000000 0.100000
v 0.000000 0.000000 -0.100000
v 0.000000 6.000000 -0.100000
v 4.000000 0.000000 0.100000
v 4.000000 6.000000 0.100000
v 4.000000 0.000000 -0.100000
v 4.000000 6.000000 -0.100000
vt 0.859205 0.000000
vt 0.110883 0.036906
vt 0.110856 0.000000
vt 0.856966 0.038758
vt 0.120362 0.437709
vt 0.865416 0.444509
vt 0.119576 0.513092
vt 0.863509 0.518307
vt 0.120536 0.912894
vt 0.000000 0.512914
vt 0.009530 0.437249
vt 1.000000 0.440969
vt 0.861793 0.914746
vt 1.000000 0.519062
vn -0.5773 0.5773 0.5773
vn -0.5773 -0.5773 -0.5773
vn -0.5773 -0.5773 0.5773
vn -0.5773 0.5773 -0.5773
vn 0.5773 -0.5773 -0.5773
vn 0.5773 0.5773 -0.5773
vn 0.5773 -0.5773 0.5773
vn 0.5773 0.5773 0.5773
usemtl door
s 1
f 2/1/1 3/2/2 1/3/3
s 2
f 4/4/4 7/5/5 3/2/2
s 3
f 8/6/6 5/7/7 7/5/5
s 4
f 6/8/8 1/9/3 5/7/7
s 5
f 7/5/5 1/10/3 3/11/2
s 6
f 4/12/4 6/8/8 8/6/6
s 7
f 2/1/1 4/4/4 3/2/2
s 8
f 4/4/4 8/6/6 7/5/5
s 9
f 8/6/6 6/8/8 5/7/7
s 10
f 6/8/8 2/13/1 1/9/3
s 11
f 7/5/5 5/7/7 1/10/3
s 12
f 4/12/4 2/14/1 6/8/8
o Cylinder
v 3.800000 3.100000 -0.300000
v 3.800000 3.100000 0.300000
v 3.819509 3.098078 -0.300000
v 3.819509 3.098078 0.300000
v 3.838268 3.092388 -0.300000
v 3.838268 3.092388 0.300000
v 3.855557 3.083147 -0.300000
v 3.855557 3.083147 0.300000
v 3.870711 3.070711 -0.300000
v 3.870711 3.070711 0.300000
v 3.883147 3.055557 -0.300000
v 3.883147 3.055557 0.300000
v 3.892388 3.038268 -0.300000
v 3.892388 3.038268 0.300000
v 3.898078 3.019509 -0.300000
v 3.898078 3.019509 0.300000
v 3.900000 3.000000 -0.300000
v 3.900000 3.000000 0.300000
v 3.898078 2.980491 -0.300000
v 3.898078 2.980491 0.300000
v 3.892388 2.961732 -0.300000
v 3.892388 2.961732 0.300000
v 3.883147 2.944443 -0.300000
v 3.883147 2.944443 0.300000
v 3.870711 2.929289 -0.300000
v 3.870711 2.929289 0.300000
v 3.855557 2.916853 -0.300000
v 3.855557 2.916853 0.300000
v 3.838268 2.907612 -0.300000
v 3.838268 2.907612 0.300000
v 3.819509 2.901922 -0.300000
v 3.819509 2.901922 0.300000
v 3.800000 2.900000 -0.300000
v 3.800000 2.900000 0.300000
v 3.780491 2.901922 -0.300000
v 3.780491 2.901922 0.300000
v 3.761732 2.907612 -0.300000
v 3.761732 2.907612 0.300000
v 3.744443 2.916853 -0.300000
v 3.744443 2.916853 0.300000
v 3.729289 2.929289 -0.300000
v 3.729289 2.929289 0.300000
v 3.716853 2.944443 -0.300000
v 3.716853 2.944443 0.300000
v 3.707612 2.961732 -0.300000
v 3.707612 2.961732 0.300000
v 3.701921 2.980491 -0.300000
v 3.701921 2.980491 0.300000
v 3.700000 3.000000 -0.300000
v 3.700000 3.000000 0.300000
v 3.701921 3.019509 -0.300000
v 3.701921 3.019509 0.300000
v 3.707612 3.038269 -0.300000
v 3.707612 3.038268 0.300000
v 3.716853 3.055557 -0.300000
v 3.716853 3.055557 0.300000
v 3.729289 3.070711 -0.300000
v 3.729289 3.070711 0.300000
v 3.744443 3.083147 -0.300000
v 3.744443 3.083147 0.300000
v 3.761732 3.092388 -0.300000
v 3.761732 3.092388 0.300000
v 3.780491 3.098078 -0.300000
v 3.780491 3.098078 0.300000
vt 1.000000 1.000000
vt 0.968750 0.500000
vt 1.000000 0.500000
vt 0.968750 1.000000
vt 0.937500 0.500000
vt 0.937500 1.000000
vt 0.906250 0.500000
vt 0.906250 1.000000
vt 0.875000 0.500000
vt 0.875000 1.000000
vt 0.843750 0.500000
vt 0.843750 1.000000
vt 0.812500 0.500000
vt 0.812500 1.000000
vt 0.781250 0.500000
vt 0.781250 1.000000
vt 0.750000 0.500000
vt 0.750000 1.000000
vt 0.718750 0.500000
vt 0.718750 1.000000
vt 0.687500 0.500000
vt 0.687500 1.000000
vt 0.656250 0.500000
vt 0.656250 1.000000
vt 0.625000 0.500000
vt 0.625000 1.000000
vt 0.593750 0.500000
vt 0.593750 1.000000
vt 0.562500 0.500000
vt 0.562500 1.000000
vt 0.531250 0.500000
vt 0.531250 1.000000
vt 0.500000 0.500000
vt 0.500000 1.000000
vt 0.468750 0.500000
vt 0.468750 1.000000
vt 0.437500 0.500000
vt 0.437500 1.000000
vt 0.406250 0.500000
vt 0.406250 1.000000
vt 0.375000 0.500000
vt 0.375000 1.000000
vt 0.343750 0.500000
vt 0.343750 1.000000
vt 0.312500 0.500000
vt 0.312500 1.000000
vt 0.281250 0.500000
vt 0.281250 1.000000
vt 0.250000 0.500000
vt 0.250000 1.000000
vt 0.218750 0.500000
vt 0.218750 1.000000
vt 0.187500 0.500000
vt 0.187500 1.000000
vt 0.156250 0.500000
vt 0.156250 1.000000
vt 0.125000 0.500000
vt 0.125000 1.000000
vt 0.093750 0.500000
vt 0.093750 1.000000
vt 0.062500 0.500000
vt 0.028269 0.341844
vt 0.158156 0.028269
vt 0.471731 0.158156
vt 0.062500 1.000000
vt 0.031250 0.500000
vt 0.031250 1.000000
vt 0.000000 0.500000
vt 0.985388 0.296822
vt 0.796822 0.014612
vt 0.514611 0.203179
vt 0.341844 0.471731
vt 0.296822 0.485388
vt 0.250000 0.490000
vt 0.203179 0.485389
vt 0.158156 0.471731
vt 0.116663 0.449553
vt 0.080295 0.419706
vt 0.050447 0.383337
vt 0.014612 0.296822
vt 0.010000 0.250000
vt 0.014611 0.203179
vt 0.028269 0.158156
vt 0.050447 0.116663
vt 0.080294 0.080294
vt 0.116663 0.050447
vt 0.203178 0.014612
vt 0.250000 0.010000
vt 0.296822 0.014612
vt 0.341844 0.028269
vt 0.383337 0.050447
vt 0.419706 0.080294
vt 0.449553 0.116663
vt 0.485388 0.203178
vt 0.490000 0.250000
vt 0.485388 0.296822
vt 0.471731 0.341844
vt 0.449553 0.383337
vt 0.419706 0.419706
vt 0.383337 0.449553
vt 0.000000 1.000000
vt 0.703179 0.485389
vt 0.750000 0.490000
vt 0.796822 0.485388
vt 0.841844 0.471731
vt 0.883337 0.449553
vt 0.919706 0.419706
vt 0.949553 0.383337
vt 0.971731 0.341844
vt 0.990000 0.250000
vt 0.985388 0.203178
vt 0.971731 0.158156
vt 0.949553 0.116663
vt 0.919706 0.080294
vt 0.883337 0.050447
vt 0.841844 0.028269
vt 0.750000 0.010000
vt 0.703178 0.014612
vt 0.658156 0.028269
vt 0.616663 0.050447
vt 0.580294 0.080294
vt 0.550447 0.116663
vt 0.528269 0.158156
vt 0.510000 0.250000
vt 0.514612 0.296822
vt 0.528269 0.341844
vt 0.550447 0.383337
vt 0.580295 0.419706
vt 0.616663 0.449553
vt 0.658156 0.471731
vn 0.0000 0.7279 0.6857
vn 0.1420 0.7139 -0.6857
vn 0.0000 0.7279 -0.6857
vn 0.1420 0.7139 0.6857
vn 0.2785 0.6725 -0.6857
vn 0.2785 0.6725 0.6857
vn 0.4044 0.6052 -0.6857
vn 0.4044 0.6052 0.6857
vn 0.5147 0.5147 -0.6857
vn 0.5147 0.5147 0.6857
vn 0.6052 0.4044 -0.6857
vn 0.6052 0.4044 0.6857
vn 0.6725 0.2785 -0.6857
vn 0.6725 0.2785 0.6857
vn 0.7139 0.1420 -0.6857
vn 0.7139 0.1420 0.6857
vn 0.7279 0.0000 -0.6857
vn 0.7279 0.0000 0.6857
vn 0.7139 -0.1420 -0.6857
vn 0.7139 -0.1420 0.6857
vn 0.6725 -0.2785 -0.6857
vn 0.6725 -0.2785 0.6857
vn 0.6052 -0.4044 -0.6857
vn 0.6052 -0.4044 0.6857
vn 0.5147 -0.5147 -0.6857
vn 0.5147 -0.5147 0.6857
vn 0.4044 -0.6052 -0.6857
vn 0.4044 -0.6052 0.6857
vn 0.2785 -0.6725 -0.6857
vn 0.2785 -0.6725 0.6857
vn 0.1420 -0.7139 -0.6857
vn 0.1420 -0.7139 0.6857
vn 0.0000 -0.7279 -0.6857
vn 0.0000 -0.7279 0.6857
vn -0.1420 -0.7139 -0.6857
vn -0.1420 -0.7139 0.6857
vn -0.2785 -0.6725 -0.6857
vn -0.2785 -0.6725 0.6857
vn -0.4044 -0.6052 -0.6857
vn -0.4044 -0.6052 0.6857
vn -0.5147 -0.5147 -0.6857
vn -0.5147 -0.5147 0.6857
vn -0.6052 -0.4044 -0.6857
vn -0.6052 -0.4044 0.6857
vn -0.6725 -0.2785 -0.6857
vn -0.6725 -0.2785 0.6857
vn -0.7139 -0.1420 -0.6857
vn -0.7139 -0.1420 0.6857
vn -0.7279 0.0000 -0.6857
vn -0.7279 0.0000 0.6857
vn -0.7139 0.1420 -0.6857
vn -0.7139 0.1420 0.6857
vn -0.6725 0.2785 -0.6857
vn -0.6725 0.2785 0.6857
vn -0.6052 0.4044 -0.6857
vn -0.6052 0.4044 0.6857
vn -0.5147 0.5147 -0.6857
vn -0.5147 0.5147 0.6857
vn -0.4044 0.6052 -0.6857
vn -0.4044 0.6052 0.6857
vn -0.2785 0.6725 -0.6857
vn -0.2785 0.6725 0.6857
vn -0.1420 0.7139 -0.6857
vn -0.1420 0.7139 0.6857
usemtl doorhandle
s 1
f 10/15/9 11/16/10 9/17/11
s 2
f 12/18/12 13/19/13 11/16/10
s 3
f 14/20/14 15/21/15 13/19/13
s 4
f 16/22/16 17/23/17 15/21/15
s 5
f 18/24/18 19/25/19 17/23/17
s 6
f 20/26/20 21/27/21 19/25/19
s 7
f 22/28/22 23/29/23 21/27/21
s 8
f 24/30/24 25/31/25 23/29/23
s 9
f 26/32/26 27/33/27 25/31/25
s 10
f 28/34/28 29/35/29 27/33/27
s 11
f 30/36/30 31/37/31 29/35/29
s 12
f 32/38/32 33/39/33 31/37/31
s 13
f 34/40/34 35/41/35 33/39/33
s 14
f 36/42/36 37/43/37 35/41/35
s 15
f 38/44/38 39/45/39 37/43/37
s 16
f 40/46/40 41/47/41 39/45/39
s 17
f 42/48/42 43/49/43 41/47/41
s 18
f 44/50/44 45/51/45 43/49/43
s 19
f 46/52/46 47/53/47 45/51/45
s 20
f 48/54/48 49/55/49 47/53/47
s 21
f 50/56/50 51/57/51 49/55/49
s 22
f 52/58/52 53/59/53 51/57/51
s 23
f 54/60/54 55/61/55 53/59/53
s 24
f 56/62/56 57/63/57 55/61/55
s 25
f 58/64/58 59/65/59 57/63/57
s 26
f 60/66/60 61/67/61 59/65/59
s 27
f 62/68/62 63/69/63 61/67/61
s 28
f 64/70/64 65/71/65 63/69/63
s 29
f 66/72/66 67/73/67 65/71/65
s 30
f 68/74/68 69/75/69 67/73/67
s 31
f 62/76/62 46/77/46 30/78/30
s 32
f 70/79/70 71/80/71 69/75/69
s 33
f 72/81/72 9/82/11 71/80/71
s 34
f 23/83/23 39/84/39 55/85/55
s 35
f 10/15/9 12/18/12 11/16/10
s 36
f 12/18/12 14/20/14 13/19/13
s 37
f 14/20/14 16/22/16 15/21/15
s 38
f 16/22/16 18/24/18 17/23/17
s 39
f 18/24/18 20/26/20 19/25/19
s 40
f 20/26/20 22/28/22 21/27/21
s 41
f 22/28/22 24/30/24 23/29/23
s 42
f 24/30/24 26/32/26 25/31/25
s 43
f 26/32/26 28/34/28 27/33/27
s 44
f 28/34/28 30/36/30 29/35/29
s 45
f 30/36/30 32/38/32 31/37/31
s 46
f 32/38/32 34/40/34 33/39/33
s 47
f 34/40/34 36/42/36 35/41/35
s 48
f 36/42/36 38/44/38 37/43/37
s 49
f 38/44/38 40/46/40 39/45/39
s 50
f 40/46/40 42/48/42 41/47/41
s 51
f 42/48/42 44/50/44 43/49/43
s 52
f 44/50/44 46/52/46 45/51/45
s 53
f 46/52/46 48/54/48 47/53/47
s 54
f 48/54/48 50/56/50 49/55/49
s 55
f 50/56/50 52/58/52 51/57/51
s 56
f 52/58/52 54/60/54 53/59/53
s 57
f 54/60/54 56/62/56 55/61/55
s 58
f 56/62/56 58/64/58 57/63/57
s 59
f 58/64/58 60/66/60 59/65/59
s 60
f 60/66/60 62/68/62 61/67/61
s 61
f 62/68/62 64/70/64 63/69/63
s 62
f 64/70/64 66/72/66 65/71/65
s 63
f 66/72/66 68/74/68 67/73/67
s 64
f 68/74/68 70/79/70 69/75/69
s 65
f 14/86/14 12/87/12 10/88/9
s 66
f 10/88/9 72/89/72 14/86/14
s 67
f 72/89/72 70/90/70 14/86/14
s 68
f 70/90/70 68/91/68 66/92/66
s 69
f 66/92/66 64/93/64 62/76/62
s 70
f 62/76/62 60/94/60 58/95/58
s 71
f 58/95/58 56/96/56 62/76/62
s 72
f 56/96/56 54/97/54 62/76/62
s 73
f 54/97/54 52/98/52 46/77/46
s 74
f 52/98/52 50/99/50 46/77/46
s 75
f 50/99/50 48/100/48 46/77/46
s 76
f 46/77/46 44/101/44 42/102/42
s 77
f 42/102/42 40/103/40 38/104/38
s 78
f 38/104/38 36/105/36 34/106/34
s 79
f 34/106/34 32/107/32 30/78/30
s 80
f 30/78/30 28/108/28 26/109/26
s 81
f 26/109/26 24/110/24 30/78/30
s 82
f 24/110/24 22/111/22 30/78/30
s 83
f 22/111/22 20/112/20 18/113/18
s 84
f 18/113/18 16/114/16 14/86/14
s 85
f 70/90/70 66/92/66 14/86/14
s 86
f 66/92/66 62/76/62 14/86/14
s 87
f 46/77/46 42/102/42 30/78/30
s 88
f 42/102/42 38/104/38 30/78/30
s 89
f 38/104/38 34/106/34 30/78/30
s 90
f 22/111/22 18/113/18 30/78/30
s 91
f 18/113/18 14/86/14 30/78/30
s 92
f 62/76/62 54/97/54 46/77/46
s 93
f 14/86/14 62/76/62 30/78/30
s 94
f 70/79/70 72/81/72 71/80/71
s 95
f 72/81/72 10/115/9 9/82/11
s 96
f 71/116/71 9/117/11 11/118/10
s 97
f 11/118/10 13/119/13 15/120/15
s 98
f 15/120/15 17/121/17 19/122/19
s 99
f 19/122/19 21/123/21 15/120/15
s 100
f 21/123/21 23/83/23 15/120/15
s 101
f 23/83/23 25/124/25 27/125/27
s 102
f 27/125/27 29/126/29 23/83/23
s 103
f 29/126/29 31/127/31 23/83/23
s 104
f 31/127/31 33/128/33 39/84/39
s 105
f 33/128/33 35/129/35 39/84/39
s 106
f 35/129/35 37/130/37 39/84/39
s 107
f 39/84/39 41/131/41 43/132/43
s 108
f 43/132/43 45/133/45 47/134/47
s 109
f 47/134/47 49/135/49 51/136/51
s 110
f 51/136/51 53/137/53 55/85/55
s 111
f 55/85/55 57/138/57 59/139/59
s 112
f 59/139/59 61/140/61 63/141/63
s 113
f 63/141/63 65/142/65 71/116/71
s 114
f 65/142/65 67/143/67 71/116/71
s 115
f 67/143/67 69/144/69 71/116/71
s 116
f 71/116/71 11/118/10 15/120/15
s 117
f 39/84/39 43/132/43 55/85/55
s 118
f 43/132/43 47/134/47 55/85/55
s 119
f 47/134/47 51/136/51 55/85/55
s 120
f 55/85/55 59/139/59 71/116/71
s 121
f 59/139/59 63/141/63 71/116/71
s 122
f 71/116/71 15/120/15 23/83/23
s 123
f 23/83/23 31/127/31 39/84/39
s 124
f 71/116/71 23/83/23 55/85/55
