# Blender v2.80 (sub 75) OBJ File: 'windmillarms.blend'
# www.blender.org
mtllib windmillarms.mtl
o arm1_Cube.001
v -0.100000 -3.000000 0.100000
v -0.100000 3.000000 0.100000
v -0.100000 -3.000000 -0.100000
v -0.100000 3.000000 -0.100000
v 0.100000 -3.000000 0.100000
v 0.100000 3.000000 0.100000
v 0.100000 -3.000000 -0.100000
v 0.100000 3.000000 -0.100000
vt 0.500000 0.500000
vt 0.750000 0.250000
vt 0.750000 0.500000
vt 0.250000 0.250000
vt 0.500000 0.000000
vt 0.500000 0.250000
vt 0.000000 0.500000
vt 0.250000 0.250000
vt 0.250000 0.500000
vt 0.000000 0.500000
vt 0.250000 0.750000
vt 0.000000 0.750000
vt 0.250000 1.000000
vt 0.500000 0.750000
vt 0.500000 1.000000
vt 0.250000 1.000000
vt 0.000000 0.750000
vt 0.250000 0.750000
vt 0.500000 0.250000
vt 0.250000 0.000000
vt 0.000000 0.250000
vt 0.250000 0.500000
vt 0.250000 0.750000
vt 0.000000 1.000000
vn -0.5773 0.5773 0.5773
vn -0.5773 -0.5773 -0.5773
vn -0.5773 -0.5773 0.5773
vn -0.5773 0.5773 -0.5773
vn 0.5773 -0.5773 -0.5773
vn 0.5773 0.5773 -0.5773
vn 0.5773 -0.5773 0.5773
vn 0.5773 0.5773 0.5773
usemtl None
s 1
f 2/1/1 3/2/2 1/3/3
s 2
f 4/4/4 7/5/5 3/6/2
s 3
f 8/7/6 5/8/7 7/9/5
s 4
f 6/10/8 1/11/3 5/12/7
s 5
f 7/13/5 1/14/3 3/15/2
s 6
f 4/16/4 6/17/8 8/18/6
s 7
f 2/1/1 4/19/4 3/2/2
s 8
f 4/4/4 8/20/6 7/5/5
s 9
f 8/7/6 6/21/8 5/8/7
s 10
f 6/10/8 2/22/1 1/11/3
s 11
f 7/13/5 5/23/7 1/14/3
s 12
f 4/16/4 2/24/1 6/17/8
o arm2_Cube.002
v -0.100000 -0.100000 -3.000000
v -0.100000 -0.100000 3.000000
v -0.100000 0.100000 -3.000000
v -0.100000 0.100000 3.000000
v 0.100000 -0.100000 -3.000000
v 0.100000 -0.100000 3.000000
v 0.100000 0.100000 -3.000000
v 0.100000 0.100000 3.000000
vt 0.250000 0.750000
vt 0.500000 0.500000
vt 0.500000 0.750000
vt 0.250000 0.500000
vt 0.500000 0.250000
vt 0.000000 0.250000
vt 0.250000 0.000000
vt 0.250000 0.250000
vt 0.500000 0.000000
vt 0.750000 0.250000
vt 0.500000 0.250000
vt 0.750000 0.250000
vt 1.000000 0.000000
vt 1.000000 0.250000
vt 0.750000 0.750000
vt 0.500000 0.500000
vt 0.750000 0.500000
vt 0.250000 0.250000
vt 0.000000 0.000000
vt 0.750000 0.000000
vt 0.750000 0.000000
vt 0.500000 0.750000
vn -0.5773 -0.5773 0.5773
vn -0.5773 0.5773 -0.5773
vn -0.5773 -0.5773 -0.5773
vn -0.5773 0.5773 0.5773
vn 0.5773 0.5773 -0.5773
vn 0.5773 0.5773 0.5773
vn 0.5773 -0.5773 -0.5773
vn 0.5773 -0.5773 0.5773
usemtl None
s 1
f 10/25/9 11/26/10 9/27/11
s 2
f 12/28/12 15/29/13 11/26/10
s 3
f 16/30/14 13/31/15 15/32/13
s 4
f 14/33/16 9/34/11 13/35/15
s 5
f 15/36/13 9/37/11 11/38/10
s 6
f 12/39/12 14/40/16 16/41/14
s 7
f 10/25/9 12/28/12 11/26/10
s 8
f 12/28/12 16/42/14 15/29/13
s 9
f 16/30/14 14/43/16 13/31/15
s 10
f 14/33/16 10/44/9 9/34/11
s 11
f 15/36/13 13/45/15 9/37/11
s 12
f 12/39/12 10/46/9 14/40/16
o wing1_Grid
v -0.000000 0.000000 3.000000
v 0.000000 3.000000 0.000000
v -0.000000 0.000000 0.000000
vt 0.000000 0.000000
vt 0.000000 0.000000
vt 0.000000 0.000000
vn -1.0000 0.0000 0.0000
usemtl None
s off
f 19/47/17 17/48/17 18/49/17
o wing2_Grid.001
v -0.000000 0.000000 -3.000000
v 0.000000 3.000000 0.000000
v 0.000000 0.000000 0.000000
vt 0.000000 0.000000
vt 0.000000 0.000000
vt 0.000000 0.000000
vn 1.0000 0.0000 -0.0000
usemtl None
s off
f 22/50/18 20/51/18 21/52/18
o wing3_Grid.002
v 0.000000 0.000000 3.000000
v -0.000000 -3.000000 0.000000
v 0.000000 0.000000 0.000000
vt 0.000000 0.000000
vt 0.000000 0.000000
vt 0.000000 0.000000
vn 1.0000 -0.0000 0.0000
usemtl None
s off
f 25/53/19 23/54/19 24/55/19
o wing4_Grid.003
v -0.000000 0.000000 -3.000000
v 0.000000 -3.000000 0.000000
v 0.000000 0.000000 0.000000
vt 0.000000 0.000000
vt 0.000000 0.000000
vt 0.000000 0.000000
vn -1.0000 -0.0000 0.0000
usemtl None
s off
f 28/56/20 26/57/20 27/58/20
